<svg style="display: none;"><symbol viewBox="0 0 13 14" id="icon-chain"><title>chain</title> <path d="M11.375 9.5q0-0.312-0.219-0.531l-1.625-1.625q-0.219-0.219-0.531-0.219-0.328 0-0.563 0.25 0.023 0.023 0.148 0.145t0.168 0.168 0.117 0.148 0.102 0.199 0.027 0.215q0 0.312-0.219 0.531t-0.531 0.219q-0.117 0-0.215-0.027t-0.199-0.102-0.148-0.117-0.168-0.168-0.145-0.148q-0.258 0.242-0.258 0.57 0 0.312 0.219 0.531l1.609 1.617q0.211 0.211 0.531 0.211 0.312 0 0.531-0.203l1.148-1.141q0.219-0.219 0.219-0.523zM5.883 3.992q0-0.312-0.219-0.531l-1.609-1.617q-0.219-0.219-0.531-0.219-0.305 0-0.531 0.211l-1.148 1.141q-0.219 0.219-0.219 0.523 0 0.312 0.219 0.531l1.625 1.625q0.211 0.211 0.531 0.211 0.328 0 0.563-0.242-0.023-0.023-0.148-0.145t-0.168-0.168-0.117-0.148-0.102-0.199-0.027-0.215q0-0.312 0.219-0.531t0.531-0.219q0.117 0 0.215 0.027t0.199 0.102 0.148 0.117 0.168 0.168 0.145 0.148q0.258-0.242 0.258-0.57zM12.875 9.5q0 0.937-0.664 1.586l-1.148 1.141q-0.648 0.648-1.586 0.648-0.945 0-1.594-0.664l-1.609-1.617q-0.648-0.648-0.648-1.586 0-0.961 0.688-1.633l-0.688-0.688q-0.672 0.688-1.625 0.688-0.937 0-1.594-0.656l-1.625-1.625q-0.656-0.656-0.656-1.594t0.664-1.586l1.148-1.141q0.648-0.648 1.586-0.648 0.945 0 1.594 0.664l1.609 1.617q0.648 0.648 0.648 1.586 0 0.961-0.688 1.633l0.688 0.688q0.672-0.688 1.625-0.688 0.937 0 1.594 0.656l1.625 1.625q0.656 0.656 0.656 1.594z"/> </symbol><symbol viewBox="0 0 10 14" id="icon-chevron-left"><title>chevron-left</title> <path d="M9.148 2.352l-4.148 4.148 4.148 4.148q0.148 0.148 0.148 0.352t-0.148 0.352l-1.297 1.297q-0.148 0.148-0.352 0.148t-0.352-0.148l-5.797-5.797q-0.148-0.148-0.148-0.352t0.148-0.352l5.797-5.797q0.148-0.148 0.352-0.148t0.352 0.148l1.297 1.297q0.148 0.148 0.148 0.352t-0.148 0.352z"/> </symbol><symbol viewBox="0 0 10 14" id="icon-chevron-right"><title>chevron-right</title> <path d="M8.648 6.852l-5.797 5.797q-0.148 0.148-0.352 0.148t-0.352-0.148l-1.297-1.297q-0.148-0.148-0.148-0.352t0.148-0.352l4.148-4.148-4.148-4.148q-0.148-0.148-0.148-0.352t0.148-0.352l1.297-1.297q0.148-0.148 0.352-0.148t0.352 0.148l5.797 5.797q0.148 0.148 0.148 0.352t-0.148 0.352z"/> </symbol><symbol viewBox="0 0 12 14" id="icon-clock-o"><title>clock-o</title> <path d="M7 4.25v3.5q0 0.109-0.070 0.18t-0.18 0.070h-2.5q-0.109 0-0.18-0.070t-0.070-0.18v-0.5q0-0.109 0.070-0.18t0.18-0.070h1.75v-2.75q0-0.109 0.070-0.18t0.18-0.070h0.5q0.109 0 0.18 0.070t0.070 0.18zM10.25 7q0-1.156-0.57-2.133t-1.547-1.547-2.133-0.57-2.133 0.57-1.547 1.547-0.57 2.133 0.57 2.133 1.547 1.547 2.133 0.57 2.133-0.57 1.547-1.547 0.57-2.133zM12 7q0 1.633-0.805 3.012t-2.184 2.184-3.012 0.805-3.012-0.805-2.184-2.184-0.805-3.012 0.805-3.012 2.184-2.184 3.012-0.805 3.012 0.805 2.184 2.184 0.805 3.012z"/> </symbol><symbol viewBox="0 0 1792 1792" id="icon-commenting"><title>commenting</title><path d="M640 896q0-53-37.5-90.5t-90.5-37.5-90.5 37.5-37.5 90.5 37.5 90.5 90.5 37.5 90.5-37.5 37.5-90.5zm384 0q0-53-37.5-90.5t-90.5-37.5-90.5 37.5-37.5 90.5 37.5 90.5 90.5 37.5 90.5-37.5 37.5-90.5zm384 0q0-53-37.5-90.5t-90.5-37.5-90.5 37.5-37.5 90.5 37.5 90.5 90.5 37.5 90.5-37.5 37.5-90.5zm384 0q0 174-120 321.5t-326 233-450 85.5q-110 0-211-18-173 173-435 229-52 10-86 13-12 1-22-6t-13-18q-4-15 20-37 5-5 23.5-21.5t25.5-23.5 23.5-25.5 24-31.5 20.5-37 20-48 14.5-57.5 12.5-72.5q-146-90-229.5-216.5t-83.5-269.5q0-174 120-321.5t326-233 450-85.5 450 85.5 326 233 120 321.5z"/></symbol><symbol viewBox="0 0 1792 1792" id="icon-envelope-o"><title>envelope-o</title><path d="M1664 1504v-768q-32 36-69 66-268 206-426 338-51 43-83 67t-86.5 48.5-102.5 24.5h-2q-48 0-102.5-24.5t-86.5-48.5-83-67q-158-132-426-338-37-30-69-66v768q0 13 9.5 22.5t22.5 9.5h1472q13 0 22.5-9.5t9.5-22.5zm0-1051v-24.5l-.5-13-3-12.5-5.5-9-9-7.5-14-2.5h-1472q-13 0-22.5 9.5t-9.5 22.5q0 168 147 284 193 152 401 317 6 5 35 29.5t46 37.5 44.5 31.5 50.5 27.5 43 9h2q20 0 43-9t50.5-27.5 44.5-31.5 46-37.5 35-29.5q208-165 401-317 54-43 100.5-115.5t46.5-131.5zm128-37v1088q0 66-47 113t-113 47h-1472q-66 0-113-47t-47-113v-1088q0-66 47-113t113-47h1472q66 0 113 47t47 113z"/></symbol><symbol viewBox="0 0 1792 1792" id="icon-envelope"><title>envelope</title><path d="M1792 710v794q0 66-47 113t-113 47h-1472q-66 0-113-47t-47-113v-794q44 49 101 87 362 246 497 345 57 42 92.5 65.5t94.5 48 110 24.5h2q51 0 110-24.5t94.5-48 92.5-65.5q170-123 498-345 57-39 100-87zm0-294q0 79-49 151t-122 123q-376 261-468 325-10 7-42.5 30.5t-54 38-52 32.5-57.5 27-50 9h-2q-23 0-50-9t-57.5-27-52-32.5-54-38-42.5-30.5q-91-64-262-182.5t-205-142.5q-62-42-117-115.5t-55-136.5q0-78 41.5-130t118.5-52h1472q65 0 112.5 47t47.5 113z"/></symbol><symbol viewBox="0 0 1792 1792" id="icon-facebook"><title>facebook</title><path d="M1343 12v264h-157q-86 0-116 36t-30 108v189h293l-39 296h-254v759h-306v-759h-255v-296h255v-218q0-186 104-288.5t277-102.5q147 0 228 12z"/></symbol><symbol viewBox="0 0 1792 1792" id="icon-feed"><title>feed</title><path d="M576 1344q0 80-56 136t-136 56-136-56-56-136 56-136 136-56 136 56 56 136zm512 123q2 28-17 48-18 21-47 21h-135q-25 0-43-16.5t-20-41.5q-22-229-184.5-391.5t-391.5-184.5q-25-2-41.5-20t-16.5-43v-135q0-29 21-47 17-17 43-17h5q160 13 306 80.5t259 181.5q114 113 181.5 259t80.5 306zm512 2q2 27-18 47-18 20-46 20h-143q-26 0-44.5-17.5t-19.5-42.5q-12-215-101-408.5t-231.5-336-336-231.5-408.5-102q-25-1-42.5-19.5t-17.5-43.5v-143q0-28 20-46 18-18 44-18h3q262 13 501.5 120t425.5 294q187 186 294 425.5t120 501.5z"/></symbol><symbol viewBox="0 0 1792 1792" id="icon-google-plus"><title>google-plus</title><path d="M1181 913q0 208-87 370.5t-248 254-369 91.5q-149 0-285-58t-234-156-156-234-58-285 58-285 156-234 234-156 285-58q286 0 491 192l-199 191q-117-113-292-113-123 0-227.5 62t-165.5 168.5-61 232.5 61 232.5 165.5 168.5 227.5 62q83 0 152.5-23t114.5-57.5 78.5-78.5 49-83 21.5-74h-416v-252h692q12 63 12 122zm867-122v210h-209v209h-210v-209h-209v-210h209v-209h210v209h209z"/></symbol><symbol viewBox="0 0 1792 1792" id="icon-google"><title>google</title><path d="M896 786h725q12 67 12 128 0 217-91 387.5t-259.5 266.5-386.5 96q-157 0-299-60.5t-245-163.5-163.5-245-60.5-299 60.5-299 163.5-245 245-163.5 299-60.5q300 0 515 201l-209 201q-123-119-306-119-129 0-238.5 65t-173.5 176.5-64 243.5 64 243.5 173.5 176.5 238.5 65q87 0 160-24t120-60 82-82 51.5-87 22.5-78h-436v-264z"/></symbol><symbol viewBox="0 0 1792 1792" id="icon-heart-o"><title>heart-o</title><path d="M1664 596q0-81-21.5-143t-55-98.5-81.5-59.5-94-31-98-8-112 25.5-110.5 64-86.5 72-60 61.5q-18 22-49 22t-49-22q-24-28-60-61.5t-86.5-72-110.5-64-112-25.5-98 8-94 31-81.5 59.5-55 98.5-21.5 143q0 168 187 355l581 560 580-559q188-188 188-356zm128 0q0 221-229 450l-623 600q-18 18-44 18t-44-18l-624-602q-10-8-27.5-26t-55.5-65.5-68-97.5-53.5-121-23.5-138q0-220 127-344t351-124q62 0 126.5 21.5t120 58 95.5 68.5 76 68q36-36 76-68t95.5-68.5 120-58 126.5-21.5q224 0 351 124t127 344z"/></symbol><symbol viewBox="0 0 1792 1792" id="icon-heart"><title>heart</title><path d="M896 1664q-26 0-44-18l-624-602q-10-8-27.5-26t-55.5-65.5-68-97.5-53.5-121-23.5-138q0-220 127-344t351-124q62 0 126.5 21.5t120 58 95.5 68.5 76 68q36-36 76-68t95.5-68.5 120-58 126.5-21.5q224 0 351 124t127 344q0 221-229 450l-623 600q-18 18-44 18z"/></symbol><symbol viewBox="0 0 1792 1792" id="icon-instagram"><title>instagram</title><path d="M1490 1426v-648h-135q20 63 20 131 0 126-64 232.5t-174 168.5-240 62q-197 0-337-135.5t-140-327.5q0-68 20-131h-141v648q0 26 17.5 43.5t43.5 17.5h1069q25 0 43-17.5t18-43.5zm-284-533q0-124-90.5-211.5t-218.5-87.5q-127 0-217.5 87.5t-90.5 211.5 90.5 211.5 217.5 87.5q128 0 218.5-87.5t90.5-211.5zm284-360v-165q0-28-20-48.5t-49-20.5h-174q-29 0-49 20.5t-20 48.5v165q0 29 20 49t49 20h174q29 0 49-20t20-49zm174-208v1142q0 81-58 139t-139 58h-1142q-81 0-139-58t-58-139v-1142q0-81 58-139t139-58h1142q81 0 139 58t58 139z"/></symbol><symbol viewBox="0 0 1792 1792" id="icon-link"><title>link</title><path d="M1520 1216q0-40-28-68l-208-208q-28-28-68-28-42 0-72 32 3 3 19 18.5t21.5 21.5 15 19 13 25.5 3.5 27.5q0 40-28 68t-68 28q-15 0-27.5-3.5t-25.5-13-19-15-21.5-21.5-18.5-19q-33 31-33 73 0 40 28 68l206 207q27 27 68 27 40 0 68-26l147-146q28-28 28-67zm-703-705q0-40-28-68l-206-207q-28-28-68-28-39 0-68 27l-147 146q-28 28-28 67 0 40 28 68l208 208q27 27 68 27 42 0 72-31-3-3-19-18.5t-21.5-21.5-15-19-13-25.5-3.5-27.5q0-40 28-68t68-28q15 0 27.5 3.5t25.5 13 19 15 21.5 21.5 18.5 19q33-31 33-73zm895 705q0 120-85 203l-147 146q-83 83-203 83-121 0-204-85l-206-207q-83-83-83-203 0-123 88-209l-88-88q-86 88-208 88-120 0-204-84l-208-208q-84-84-84-204t85-203l147-146q83-83 203-83 121 0 204 85l206 207q83 83 83 203 0 123-88 209l88 88q86-88 208-88 120 0 204 84l208 208q84 84 84 204z"/></symbol><symbol viewBox="0 0 220.875 29.562" id="icon-logo"><title>logo</title> <path d="M11.086,15.826c2.152,0,3.15,1.633,3.36,3.952c0.049,0.556-0.002,1.364-0.074,2.301
	c-0.242,3.114-0.52,6.939,1.553,6.939c1.753,0,2.654-3.363,3.174-7.198c0.502-3.795-0.03-5.685,0.231-7.369
	c0.498-3.193,3.286-6.056,2.424-10.128c-0.477-2.259-1.72-3.321-2.953-3.768c-2.838-1.033-4.67,0.957-7.718,0.957
	s-4.88-1.99-7.719-0.957C2.135,1.002,0.891,2.064,0.414,4.323c-0.86,4.071,1.926,6.935,2.426,10.128
	c0.261,1.685-0.27,3.574,0.232,7.369c0.52,3.834,1.42,7.198,3.174,7.198c2.071,0,1.795-3.825,1.553-6.939
	c-0.071-0.937-0.124-1.746-0.074-2.301C7.934,17.458,8.945,15.826,11.086,15.826L11.086,15.826z"/> <g> <path d="M27.138,26.492V2.483h8.207c7.451,0,12.311,5.219,12.311,12.022c0,6.839-4.859,11.986-12.311,11.986H27.138
		z M44.56,14.505c0-5.184-3.275-9.359-9.215-9.359h-5.219v18.682h5.219C41.176,23.828,44.56,19.652,44.56,14.505z"/> <path d="M51.222,17.781c0-5.04,3.6-9.107,8.567-9.107c5.255,0,8.351,4.104,8.351,9.323v0.684H54.065
		c0.216,3.275,2.52,6.011,6.263,6.011c1.979,0,3.995-0.792,5.363-2.196l1.296,1.764c-1.728,1.728-4.068,2.664-6.911,2.664
		C54.929,26.924,51.222,23.216,51.222,17.781z M59.752,10.906c-3.708,0-5.543,3.131-5.687,5.795h11.41
		C65.44,14.109,63.712,10.906,59.752,10.906z"/> <path d="M84.231,26.492V15.117c0-3.06-1.548-4.032-3.887-4.032c-2.124,0-4.14,1.296-5.147,2.7v12.707h-2.7V9.106
		h2.7v2.52c1.224-1.44,3.6-2.952,6.191-2.952c3.636,0,5.543,1.836,5.543,5.615v12.203H84.231z"/> <path d="M92.873,22.856V11.481h-2.88V9.106h2.88V4.354h2.7v4.751H99.1v2.375h-3.527V22.28
		c0,1.296,0.576,2.231,1.764,2.231c0.756,0,1.476-0.324,1.836-0.72l0.792,2.016c-0.685,0.648-1.656,1.116-3.24,1.116
		C94.169,26.924,92.873,25.448,92.873,22.856z"/> <path d="M102.449,4.822c0-1.008,0.828-1.835,1.8-1.835c1.008,0,1.836,0.828,1.836,1.835s-0.828,1.8-1.836,1.8
		C103.277,6.622,102.449,5.83,102.449,4.822z M102.917,26.492V9.106h2.7v17.386H102.917z"/> <path d="M109.505,24.188l1.404-1.944c1.15,1.332,3.348,2.484,5.723,2.484c2.664,0,4.104-1.26,4.104-2.988
		c0-4.211-10.762-1.62-10.762-8.063c0-2.7,2.338-5.003,6.479-5.003c2.951,0,5.039,1.116,6.443,2.52l-1.26,1.872
		c-1.045-1.26-2.953-2.196-5.184-2.196c-2.377,0-3.852,1.188-3.852,2.736c0,3.815,10.762,1.296,10.762,8.063
		c0,2.916-2.34,5.255-6.838,5.255C113.681,26.924,111.269,26.06,109.505,24.188z"/> <path d="M128.296,22.856V11.481h-2.879V9.106h2.879V4.354h2.699v4.751h3.527v2.375h-3.527V22.28
		c0,1.296,0.576,2.231,1.764,2.231c0.756,0,1.477-0.324,1.836-0.72l0.793,2.016c-0.686,0.648-1.656,1.116-3.24,1.116
		C129.591,26.924,128.296,25.448,128.296,22.856z"/> <path d="M137.009,23.108l1.764-2.268c1.584,1.764,4.174,3.419,7.559,3.419c4.283,0,5.65-2.304,5.65-4.139
		c0-6.191-14.217-2.772-14.217-11.339c0-3.959,3.527-6.659,8.242-6.659c3.672,0,6.516,1.224,8.531,3.348l-1.801,2.196
		c-1.799-1.979-4.318-2.879-6.947-2.879c-2.879,0-4.93,1.547-4.93,3.815c0,5.399,14.217,2.304,14.217,11.267
		c0,3.491-2.375,7.055-8.854,7.055C142.048,26.924,138.987,25.34,137.009,23.108z"/> <path d="M180.421,26.492V14.685c0-2.196-0.973-3.6-3.203-3.6c-1.801,0-3.709,1.296-4.607,2.664v12.742h-2.699
		V14.685c0-2.196-0.938-3.6-3.205-3.6c-1.764,0-3.635,1.296-4.57,2.7v12.707h-2.701V9.106h2.701v2.52
		c0.719-1.116,3.059-2.952,5.615-2.952c2.664,0,4.176,1.44,4.68,3.24c0.971-1.584,3.311-3.24,5.83-3.24
		c3.168,0,4.859,1.764,4.859,5.255v12.562H180.421z"/> <path d="M188.056,4.822c0-1.008,0.828-1.835,1.799-1.835c1.008,0,1.836,0.828,1.836,1.835s-0.828,1.8-1.836,1.8
		C188.884,6.622,188.056,5.83,188.056,4.822z M188.522,26.492V9.106h2.701v17.386H188.522z"/> <path d="M196.622,26.492V2.483h2.701v24.009H196.622z"/> <path d="M203.716,17.781c0-5.04,3.6-9.107,8.566-9.107c5.256,0,8.352,4.104,8.352,9.323v0.684H206.56
		c0.215,3.275,2.52,6.011,6.264,6.011c1.979,0,3.994-0.792,5.363-2.196l1.295,1.764c-1.727,1.728-4.066,2.664-6.91,2.664
		C207.423,26.924,203.716,23.216,203.716,17.781z M212.247,10.906c-3.707,0-5.543,3.131-5.688,5.795h11.41
		C217.935,14.109,216.206,10.906,212.247,10.906z"/> </g> </symbol><symbol viewBox="0 0 1792 1792" id="icon-quote-left"><title>quote-left</title><path d="M832 960v384q0 80-56 136t-136 56h-384q-80 0-136-56t-56-136v-704q0-104 40.5-198.5t109.5-163.5 163.5-109.5 198.5-40.5h64q26 0 45 19t19 45v128q0 26-19 45t-45 19h-64q-106 0-181 75t-75 181v32q0 40 28 68t68 28h224q80 0 136 56t56 136zm896 0v384q0 80-56 136t-136 56h-384q-80 0-136-56t-56-136v-704q0-104 40.5-198.5t109.5-163.5 163.5-109.5 198.5-40.5h64q26 0 45 19t19 45v128q0 26-19 45t-45 19h-64q-106 0-181 75t-75 181v32q0 40 28 68t68 28h224q80 0 136 56t56 136z"/></symbol><symbol viewBox="0 0 1792 1792" id="icon-quote-right"><title>quote-right</title><path d="M832 320v704q0 104-40.5 198.5t-109.5 163.5-163.5 109.5-198.5 40.5h-64q-26 0-45-19t-19-45v-128q0-26 19-45t45-19h64q106 0 181-75t75-181v-32q0-40-28-68t-68-28h-224q-80 0-136-56t-56-136v-384q0-80 56-136t136-56h384q80 0 136 56t56 136zm896 0v704q0 104-40.5 198.5t-109.5 163.5-163.5 109.5-198.5 40.5h-64q-26 0-45-19t-19-45v-128q0-26 19-45t45-19h64q106 0 181-75t75-181v-32q0-40-28-68t-68-28h-224q-80 0-136-56t-56-136v-384q0-80 56-136t136-56h384q80 0 136 56t56 136z"/></symbol><symbol viewBox="0 0 1792 1792" id="icon-search"><title>search</title><path d="M1216 832q0-185-131.5-316.5t-316.5-131.5-316.5 131.5-131.5 316.5 131.5 316.5 316.5 131.5 316.5-131.5 131.5-316.5zm512 832q0 52-38 90t-90 38q-54 0-90-38l-343-342q-179 124-399 124-143 0-273.5-55.5t-225-150-150-225-55.5-273.5 55.5-273.5 150-225 225-150 273.5-55.5 273.5 55.5 225 150 150 225 55.5 273.5q0 220-124 399l343 343q37 37 37 90z"/></symbol><symbol viewBox="0 0 1792 1792" id="icon-shopping-bag"><title>shopping-bag</title><path d="M1757 1408l35 313q3 28-16 50-19 21-48 21h-1664q-29 0-48-21-19-22-16-50l35-313h1722zm-93-839l86 775h-1708l86-775q3-24 21-40.5t43-16.5h256v128q0 53 37.5 90.5t90.5 37.5 90.5-37.5 37.5-90.5v-128h384v128q0 53 37.5 90.5t90.5 37.5 90.5-37.5 37.5-90.5v-128h256q25 0 43 16.5t21 40.5zm-384-185v256q0 26-19 45t-45 19-45-19-19-45v-256q0-106-75-181t-181-75-181 75-75 181v256q0 26-19 45t-45 19-45-19-19-45v-256q0-159 112.5-271.5t271.5-112.5 271.5 112.5 112.5 271.5z"/></symbol><symbol viewBox="0 0 1792 1792" id="icon-shopping-basket"><title>shopping-basket</title><path d="M1792 768q53 0 90.5 37.5t37.5 90.5-37.5 90.5-90.5 37.5h-15l-115 662q-8 46-44 76t-82 30h-1280q-46 0-82-30t-44-76l-115-662h-15q-53 0-90.5-37.5t-37.5-90.5 37.5-90.5 90.5-37.5h1792zm-1435 800q26-2 43.5-22.5t15.5-46.5l-32-416q-2-26-22.5-43.5t-46.5-15.5-43.5 22.5-15.5 46.5l32 416q2 25 20.5 42t43.5 17h5zm411-64v-416q0-26-19-45t-45-19-45 19-19 45v416q0 26 19 45t45 19 45-19 19-45zm384 0v-416q0-26-19-45t-45-19-45 19-19 45v416q0 26 19 45t45 19 45-19 19-45zm352 5l32-416q2-26-15.5-46.5t-43.5-22.5-46.5 15.5-22.5 43.5l-32 416q-2 26 15.5 46.5t43.5 22.5h5q25 0 43.5-17t20.5-42zm-1156-1217l-93 412h-132l101-441q19-88 89-143.5t160-55.5h167q0-26 19-45t45-19h384q26 0 45 19t19 45h167q90 0 160 55.5t89 143.5l101 441h-132l-93-412q-11-44-45.5-72t-79.5-28h-167q0 26-19 45t-45 19h-384q-26 0-45-19t-19-45h-167q-45 0-79.5 28t-45.5 72z"/></symbol><symbol viewBox="0 0 1792 1792" id="icon-shopping-cart"><title>shopping-cart</title><path d="M704 1536q0 52-38 90t-90 38-90-38-38-90 38-90 90-38 90 38 38 90zm896 0q0 52-38 90t-90 38-90-38-38-90 38-90 90-38 90 38 38 90zm128-1088v512q0 24-16.5 42.5t-40.5 21.5l-1044 122q13 60 13 70 0 16-24 64h920q26 0 45 19t19 45-19 45-45 19h-1024q-26 0-45-19t-19-45q0-11 8-31.5t16-36 21.5-40 15.5-29.5l-177-823h-204q-26 0-45-19t-19-45 19-45 45-19h256q16 0 28.5 6.5t19.5 15.5 13 24.5 8 26 5.5 29.5 4.5 26h1201q26 0 45 19t19 45z"/></symbol><symbol viewBox="0 0 13 14" id="icon-star-o"><title>star-o</title> <path d="M8.883 7.844l2.391-2.32-3.297-0.484-1.477-2.984-1.477 2.984-3.297 0.484 2.391 2.32-0.57 3.289 2.953-1.555 2.945 1.555zM13 5.055q0 0.172-0.203 0.375l-2.836 2.766 0.672 3.906q0.008 0.055 0.008 0.156 0 0.391-0.32 0.391-0.148 0-0.312-0.094l-3.508-1.844-3.508 1.844q-0.172 0.094-0.312 0.094-0.164 0-0.246-0.113t-0.082-0.277q0-0.047 0.016-0.156l0.672-3.906-2.844-2.766q-0.195-0.211-0.195-0.375 0-0.289 0.438-0.359l3.922-0.57 1.758-3.555q0.148-0.32 0.383-0.32t0.383 0.32l1.758 3.555 3.922 0.57q0.438 0.070 0.438 0.359z"/> </symbol><symbol viewBox="0 0 13 14" id="icon-star"><title>star</title> <path d="M13 5.055q0 0.172-0.203 0.375l-2.836 2.766 0.672 3.906q0.008 0.055 0.008 0.156 0 0.164-0.082 0.277t-0.238 0.113q-0.148 0-0.312-0.094l-3.508-1.844-3.508 1.844q-0.172 0.094-0.312 0.094-0.164 0-0.246-0.113t-0.082-0.277q0-0.047 0.016-0.156l0.672-3.906-2.844-2.766q-0.195-0.211-0.195-0.375 0-0.289 0.438-0.359l3.922-0.57 1.758-3.555q0.148-0.32 0.383-0.32t0.383 0.32l1.758 3.555 3.922 0.57q0.438 0.070 0.438 0.359z"/> </symbol><symbol viewBox="0 0 1792 1792" id="icon-twitter"><title>twitter</title><path d="M1684 408q-67 98-162 167 1 14 1 42 0 130-38 259.5t-115.5 248.5-184.5 210.5-258 146-323 54.5q-271 0-496-145 35 4 78 4 225 0 401-138-105-2-188-64.5t-114-159.5q33 5 61 5 43 0 85-11-112-23-185.5-111.5t-73.5-205.5v-4q68 38 146 41-66-44-105-115t-39-154q0-88 44-163 121 149 294.5 238.5t371.5 99.5q-8-38-8-74 0-134 94.5-228.5t228.5-94.5q140 0 236 102 109-21 205-78-37 115-142 178 93-10 186-50z"/></symbol></svg>